<svg width="20" height="26" viewBox="0 0 20 26" fill="none" xmlns="http://www.w3.org/2000/svg">
<path d="M4.78988 9.34763C4.78988 9.34763 4.78988 5.9564 4.78988 5.43468C4.78988 4.91295 5.47045 3.48403 6.44773 2.56518C7.56 1.51941 8.53787 1 10.0003 1C11.4627 1 12.4405 1.51941 13.5528 2.56518C14.5301 3.48403 15.2106 4.91295 15.2106 5.43468C15.2106 5.9564 15.2106 9.34763 15.2106 9.34763M4.78988 9.34763H1.94786C1.94786 9.34763 1.48245 9.33849 1.23732 9.60849C0.992195 9.87848 1.00052 10.3911 1.00052 10.3911V23.956C1.00052 23.956 0.977541 24.4523 1.23732 24.7386C1.4971 25.0248 1.94786 24.9994 1.94786 24.9994H18.0527C18.0527 24.9994 18.5263 24.9994 18.7632 24.7386C19 24.4777 19 23.956 19 23.956V10.3911C19 10.3911 19 9.86935 18.7632 9.60849C18.5263 9.34763 18.0527 9.34763 18.0527 9.34763H15.2106M4.78988 9.34763H15.2106" stroke="#CFCFCF" stroke-width="2"/>
<path fill-rule="evenodd" clip-rule="evenodd" d="M10.9562 17.2968C11.2765 17.0102 11.478 16.5937 11.478 16.1301C11.478 15.2657 10.7773 14.5649 9.91284 14.5649C9.04841 14.5649 8.34766 15.2657 8.34766 16.1301C8.34766 16.5936 8.54915 17.0101 8.86933 17.2967V18.7388C8.86933 19.315 9.3365 19.7822 9.91278 19.7822C10.4891 19.7822 10.9562 19.315 10.9562 18.7388V17.2968Z" fill="#CFCFCF"/>
</svg>
