<svg width="50" height="69" viewBox="0 0 50 69" fill="none" xmlns="http://www.w3.org/2000/svg">
<path fill-rule="evenodd" clip-rule="evenodd" d="M17.4916 0C17.3489 0 17.2266 0.10482 17.2011 0.249016L14.0066 18.3065H3.13617C2.97311 18.3065 2.84093 18.4422 2.84093 18.6097V26.4648C2.84093 26.6322 2.97311 26.768 3.13617 26.768H12.5098L10.0321 40.7731H0.295237C0.132182 40.7731 0 40.9089 0 41.0763V49.2231C0 49.3906 0.132182 49.5263 0.295237 49.5263H8.48368L5.10194 68.6425C5.06901 68.8287 5.20823 69 5.39242 69H12.7406C12.8833 69 13.0057 68.8952 13.0312 68.751L16.4321 49.5263H28.6385L25.2568 68.6425C25.2238 68.8287 25.3631 69 25.5472 69H32.8955C33.0382 69 33.1605 68.8952 33.186 68.751L36.5869 49.5263H46.8638C47.0269 49.5263 47.159 49.3906 47.159 49.2231V41.0763C47.159 40.9089 47.0269 40.7731 46.8638 40.7731H38.1354L40.6129 26.768H49.7048C49.8678 26.768 50 26.6322 50 26.4648V18.6097C50 18.4422 49.8678 18.3065 49.7048 18.3065H42.1098L45.2852 0.357428C45.318 0.171309 45.1788 0 44.9947 0H37.6464C37.5037 0 37.3814 0.10482 37.3559 0.249016L34.1614 18.3065H21.955L25.1302 0.357428C25.1632 0.171309 25.024 0 24.8398 0H17.4916ZM30.187 40.7731L32.6646 26.768H20.4581L17.9806 40.7731H30.187Z" fill="#F9E370"/>
<mask id="mask0_3035:3243" style="mask-type:alpha" maskUnits="userSpaceOnUse" x="0" y="0" width="50" height="69">
<path fill-rule="evenodd" clip-rule="evenodd" d="M17.4916 0C17.3489 0 17.2266 0.10482 17.2011 0.249016L14.0066 18.3065H3.13617C2.97311 18.3065 2.84093 18.4422 2.84093 18.6097V26.4648C2.84093 26.6322 2.97311 26.768 3.13617 26.768H12.5098L10.0321 40.7731H0.295237C0.132182 40.7731 0 40.9089 0 41.0763V49.2231C0 49.3906 0.132182 49.5263 0.295237 49.5263H8.48368L5.10194 68.6425C5.06901 68.8287 5.20823 69 5.39242 69H12.7406C12.8833 69 13.0057 68.8952 13.0312 68.751L16.4321 49.5263H28.6385L25.2568 68.6425C25.2238 68.8287 25.3631 69 25.5472 69H32.8955C33.0382 69 33.1605 68.8952 33.186 68.751L36.5869 49.5263H46.8638C47.0269 49.5263 47.159 49.3906 47.159 49.2231V41.0763C47.159 40.9089 47.0269 40.7731 46.8638 40.7731H38.1354L40.6129 26.768H49.7048C49.8678 26.768 50 26.6322 50 26.4648V18.6097C50 18.4422 49.8678 18.3065 49.7048 18.3065H42.1098L45.2852 0.357428C45.318 0.171309 45.1788 0 44.9947 0H37.6464C37.5037 0 37.3814 0.10482 37.3559 0.249016L34.1614 18.3065H21.955L25.1302 0.357428C25.1632 0.171309 25.024 0 24.8398 0H17.4916ZM30.187 40.7731L32.6646 26.768H20.4581L17.9806 40.7731H30.187Z" fill="#89D9C8"/>
</mask>
<g mask="url(#mask0_3035:3243)">
<ellipse cx="44.6807" cy="62.6307" rx="25" ry="24.9462" fill="url(#paint0_linear_3035:3243)" fill-opacity="0.7"/>
</g>
<defs>
<linearGradient id="paint0_linear_3035:3243" x1="44.6807" y1="37.6846" x2="44.6807" y2="87.5769" gradientUnits="userSpaceOnUse">
<stop stop-color="white" stop-opacity="0.7"/>
<stop offset="1" stop-color="white" stop-opacity="0.4"/>
</linearGradient>
</defs>
</svg>
