<svg width="94" height="130" viewBox="0 0 94 130" fill="none" xmlns="http://www.w3.org/2000/svg">
<path fill-rule="evenodd" clip-rule="evenodd" d="M32.8842 0C32.6159 0 32.3859 0.197487 32.338 0.469161L26.3324 34.4904H5.896C5.58945 34.4904 5.34096 34.7462 5.34096 35.0617V49.8611C5.34096 50.1767 5.58945 50.4324 5.896 50.4324H23.5184L18.8604 76.8189H0.555045C0.248503 76.8189 0 77.0747 0 77.3902V92.7392C0 93.0547 0.248503 93.3105 0.555045 93.3105H15.9493L9.59164 129.326C9.52973 129.677 9.79147 130 10.1377 130H23.9524C24.2207 130 24.4507 129.803 24.4986 129.531L30.8923 93.3105H53.8405L47.4828 129.326C47.4208 129.677 47.6826 130 48.0288 130H61.8435C62.1117 130 62.3417 129.803 62.3896 129.531L68.7834 93.3105H88.1039C88.4105 93.3105 88.659 93.0547 88.659 92.7392V77.3902C88.659 77.0747 88.4105 76.8189 88.1039 76.8189H71.6946L76.3523 50.4324H93.445C93.7515 50.4324 94 50.1767 94 49.8611V35.0617C94 34.7462 93.7515 34.4904 93.445 34.4904H79.1664L85.1361 0.673414C85.1979 0.322755 84.9361 0 84.59 0H70.7753C70.507 0 70.277 0.197487 70.2291 0.469161L64.2235 34.4904H41.2754L47.2449 0.673414C47.3068 0.322755 47.0451 0 46.6989 0H32.8842ZM56.7515 76.8189L61.4094 50.4324H38.4613L33.8035 76.8189H56.7515Z" fill="#89D9C8"/>
<path fill-rule="evenodd" clip-rule="evenodd" d="M72.4703 72.4246C60.4859 75.4469 50.3322 83.0723 43.9995 93.3105H53.8405L47.4828 129.326C47.4208 129.677 47.6826 130 48.0288 130H61.8435C62.1117 130 62.3417 129.802 62.3896 129.531L68.7834 93.3105H88.1039C88.4105 93.3105 88.659 93.0547 88.659 92.7392V77.3902C88.659 77.0746 88.4105 76.8189 88.1039 76.8189H71.6946L72.4703 72.4246Z" fill="#BFEAE1"/>
</svg>
