<svg width="50" height="50" viewBox="0 0 50 50" fill="none" xmlns="http://www.w3.org/2000/svg">
<path fill-rule="evenodd" clip-rule="evenodd" d="M50 24.9997C50 11.1928 38.8071 0 25 0C11.1929 0 0 11.1928 0 24.9997V44.9995C0 47.7608 2.23858 49.9994 5 49.9994H25H45C47.7614 49.9994 50 47.7608 50 44.9995V24.9997Z" fill="#F25A5A"/>
<path fill-rule="evenodd" clip-rule="evenodd" d="M40 24.9998C40 16.7156 33.2843 9.99997 25 9.99997C16.7157 9.99997 10 16.7156 10 24.9998V49.9995H40V24.9998Z" fill="#F47171"/>
<path fill-rule="evenodd" clip-rule="evenodd" d="M29.999 25.0004C29.999 22.239 27.7604 20.0005 24.999 20.0005C22.2376 20.0005 19.999 22.239 19.999 25.0004V50.0001H29.999V25.0004Z" fill="#FBD0D0"/>
</svg>
