<svg width="24" height="24" viewBox="0 0 24 24" fill="none" xmlns="http://www.w3.org/2000/svg">
<circle cx="12" cy="12" r="11.25" stroke="#CFCFCF" stroke-width="1.5"/>
<circle cx="12" cy="12" r="11" stroke="#CFCFCF" stroke-width="2"/>
<path fill-rule="evenodd" clip-rule="evenodd" d="M11.5153 3.21208C11.5153 2.91084 11.7595 2.66663 12.0607 2.66663C12.362 2.66663 12.6062 2.91083 12.6062 3.21208V10.545C13.1756 10.7825 13.5758 11.3445 13.5758 12C13.5758 12.8702 12.8703 13.5757 12.0001 13.5757C11.7942 13.5757 11.5976 13.5362 11.4174 13.4645L8.30273 16.5131C8.08745 16.7239 7.74211 16.7202 7.53139 16.5049C7.32067 16.2896 7.32436 15.9443 7.53964 15.7335L10.6049 12.7332C10.4896 12.5142 10.4243 12.2647 10.4243 12C10.4243 11.2988 10.8822 10.7047 11.5153 10.5002V3.21208Z" fill="#CFCFCF"/>
</svg>
