<svg width="26" height="26" viewBox="0 0 26 26" fill="none" xmlns="http://www.w3.org/2000/svg">
<path d="M24.4666 25H25.4666C25.4666 25.413 25.2126 25.7836 24.8274 25.9326C24.4422 26.0817 24.005 25.9785 23.727 25.6731L24.4666 25ZM23.3491 1L23.3491 -1.55342e-09L23.3491 1.55342e-09L23.3491 1ZM2.11734 1L2.11698 0H2.11734V1ZM0.999878 2.11628L1.99988 2.11628V2.11628H0.999878ZM0.999878 17.7442L1.99988 17.7442L1.99988 17.7444L0.999878 17.7442ZM2.11734 18.8605L2.10667 17.8605H2.11734V18.8605ZM18.8793 18.8605V17.8605C19.1608 17.8605 19.4293 17.9792 19.6188 18.1874L18.8793 18.8605ZM23.4666 25V2.11628H25.4666V25H23.4666ZM23.3491 2H2.11734V0H23.3491V2ZM1.99988 2.11628V17.7442H-0.00012207V2.11628H1.99988ZM2.11734 17.8605H18.8793V19.8605H2.11734V17.8605ZM19.6188 18.1874L25.2061 24.3269L23.727 25.6731L18.1397 19.5335L19.6188 18.1874ZM0.999878 17.7442C1.99988 17.7444 1.99988 17.7442 1.99988 17.744C1.99988 17.7439 1.99988 17.7437 1.99988 17.7435C1.99988 17.7433 1.99988 17.743 1.99988 17.7427C1.99988 17.7422 1.99987 17.7417 1.99987 17.7412C1.99987 17.7403 1.99987 17.7395 1.99986 17.7389C1.99985 17.7375 1.99984 17.7366 1.99983 17.7362C1.99982 17.7354 1.99983 17.7364 1.99991 17.7389C2.00007 17.7441 2.00051 17.7552 2.00159 17.7706C2.00385 17.8029 2.00837 17.8463 2.01657 17.8908C2.02523 17.9377 2.03456 17.9671 2.03938 17.979C2.0459 17.9951 2.03244 17.9518 1.97353 17.8929L0.559314 19.3071C0.200239 18.9481 0.0905134 18.4747 0.0497239 18.2534C0.0246245 18.1173 0.0125129 17.9967 0.00646257 17.9102C0.00338679 17.8662 0.00175011 17.8292 0.000877068 17.8011C0.000439135 17.787 0.00018933 17.7751 4.90058e-05 17.7655C-2.12168e-05 17.7607 -6.42034e-05 17.7565 -8.95236e-05 17.7529C-0.000102187 17.7511 -0.000110441 17.7495 -0.000115468 17.748C-0.000117981 17.7472 -0.000119688 17.7465 -0.000120736 17.7459C-0.00012126 17.7455 -0.000121619 17.7452 -0.000121832 17.7449C-0.000121927 17.7447 -0.000122022 17.7445 -0.000122043 17.7444C-0.000122071 17.7442 -0.000122048 17.744 0.999878 17.7442ZM1.97353 17.8929C1.91397 17.8334 1.86939 17.8192 1.88332 17.8248C1.89338 17.8288 1.92087 17.8375 1.96629 17.8456C2.00925 17.8532 2.05124 17.8572 2.08255 17.8591C2.09747 17.86 2.1081 17.8603 2.11295 17.8604C2.11533 17.8605 2.11614 17.8605 2.11519 17.8605C2.11471 17.8605 2.11378 17.8605 2.11237 17.8605C2.11167 17.8605 2.11084 17.8605 2.10989 17.8605C2.10942 17.8605 2.10891 17.8605 2.10838 17.8605C2.10811 17.8605 2.10783 17.8605 2.10755 17.8605C2.10741 17.8605 2.10719 17.8605 2.10712 17.8605C2.10689 17.8605 2.10667 17.8605 2.11734 18.8605C2.12801 19.8604 2.12778 19.8604 2.12755 19.8604C2.12747 19.8604 2.12724 19.8604 2.12708 19.8604C2.12676 19.8604 2.12643 19.8604 2.12609 19.8604C2.12541 19.8604 2.12469 19.8604 2.12394 19.8604C2.12242 19.8605 2.12076 19.8605 2.11894 19.8605C2.1153 19.8605 2.11106 19.8605 2.10624 19.8605C2.0966 19.8604 2.0846 19.8603 2.07048 19.86C2.04233 19.8594 2.00524 19.8581 1.96122 19.8554C1.87465 19.8502 1.75391 19.8391 1.61747 19.8149C1.39513 19.7755 0.920427 19.6683 0.559314 19.3071L1.97353 17.8929ZM2.11734 1C2.1177 2 2.11792 2 2.11814 2C2.11821 2 2.11842 2 2.11856 2C2.11885 2 2.11912 2 2.11938 2C2.11991 2 2.12041 2 2.12088 1.99999C2.12181 1.99999 2.12262 1.99998 2.12331 1.99998C2.12469 1.99997 2.12559 1.99996 2.12604 1.99995C2.12692 1.99994 2.12604 1.99994 2.12359 2.00002C2.11859 2.00018 2.10778 2.00061 2.09266 2.00169C2.06097 2.00394 2.01838 2.00843 1.97466 2.01656C1.92853 2.02514 1.89981 2.03435 1.8883 2.03903C1.87278 2.04534 1.91541 2.03192 1.97346 1.97388L0.559383 0.559523C0.917224 0.201753 1.38759 0.0914461 1.60901 0.0502706C1.7447 0.0250369 1.86486 0.0128238 1.95108 0.00670531C1.99491 0.00359493 2.03183 0.00193074 2.05983 0.00103765C2.07388 0.00058966 2.08581 0.000331578 2.09539 0.000184833C2.10018 0.000111398 2.10439 6.5655e-05 2.108 3.8047e-05C2.1098 2.42396e-05 2.11145 1.49579e-05 2.11295 9.02108e-06C2.1137 6.05248e-06 2.11441 3.91962e-06 2.11508 2.47573e-06C2.11542 1.75378e-06 2.11575 1.20403e-06 2.11606 8.08199e-07C2.11622 6.21592e-07 2.11645 3.9381e-07 2.11653 3.27594e-07C2.11676 1.69629e-07 2.11698 6.414e-08 2.11734 1ZM1.97346 1.97388C2.03136 1.91599 2.04482 1.87343 2.03861 1.88869C2.03401 1.9 2.02486 1.92847 2.01633 1.97433C2.00824 2.01779 2.00378 2.06013 2.00155 2.09162C2.00048 2.10665 2.00005 2.11738 1.9999 2.12231C1.99982 2.12473 1.99982 2.12558 1.99983 2.12467C1.99984 2.12421 1.99985 2.1233 1.99986 2.12192C1.99986 2.12122 1.99987 2.12041 1.99987 2.11947C1.99987 2.119 1.99988 2.1185 1.99988 2.11797C1.99988 2.1177 1.99988 2.11743 1.99988 2.11715C1.99988 2.11701 1.99988 2.11679 1.99988 2.11672C1.99988 2.1165 1.99988 2.11628 0.999878 2.11628C-0.00012207 2.11628 -0.000122045 2.11605 -0.000121969 2.11583C-0.00012193 2.11575 -0.000121784 2.11552 -0.000121654 2.11536C-0.00012137 2.11504 -0.000120935 2.11471 -0.00012033 2.11438C-0.000119121 2.1137 -0.000117234 2.11299 -0.000114521 2.11224C-0.000109096 2.11074 -0.000100369 2.10909 -8.71558e-05 2.10728C-6.07356e-05 2.10367 -1.63406e-05 2.09945 5.56097e-05 2.09466C0.000199386 2.08508 0.000453937 2.07315 0.000898021 2.0591C0.00178332 2.0311 0.00343809 1.99419 0.00653915 1.95039C0.0126392 1.86422 0.0248331 1.74414 0.0500655 1.60852C0.0912834 1.38697 0.201665 0.91717 0.559383 0.559523L1.97346 1.97388ZM24.4666 2.11628C23.4666 2.11628 23.4666 2.1165 23.4666 2.11672C23.4666 2.11679 23.4666 2.11701 23.4666 2.11715C23.4666 2.11743 23.4666 2.11771 23.4666 2.11797C23.4666 2.1185 23.4666 2.11901 23.4666 2.11948C23.4666 2.12042 23.4666 2.12123 23.4666 2.12193C23.4666 2.12332 23.4666 2.12423 23.4666 2.12469C23.4666 2.12561 23.4666 2.12476 23.4665 2.12235C23.4664 2.11744 23.4659 2.10674 23.4649 2.09173C23.4627 2.06029 23.4582 2.018 23.4501 1.97459C23.4416 1.92878 23.4324 1.90035 23.4278 1.88904C23.4216 1.87382 23.4351 1.91625 23.4928 1.97398L24.9067 0.55942C25.2645 0.917021 25.375 1.38665 25.4163 1.60839C25.4416 1.74404 25.4538 1.86415 25.4599 1.95033C25.463 1.99414 25.4646 2.03106 25.4655 2.05907C25.466 2.07312 25.4662 2.08506 25.4664 2.09464C25.4664 2.09944 25.4665 2.10366 25.4665 2.10727C25.4665 2.10908 25.4665 2.11073 25.4665 2.11224C25.4665 2.11299 25.4665 2.1137 25.4666 2.11437C25.4666 2.11471 25.4666 2.11504 25.4666 2.11536C25.4666 2.11551 25.4666 2.11575 25.4666 2.11583C25.4666 2.11605 25.4666 2.11628 24.4666 2.11628ZM23.4928 1.97398C23.5507 2.0318 23.5931 2.04518 23.5777 2.03891C23.5662 2.03424 23.5376 2.02505 23.4916 2.0165C23.448 2.00839 23.4055 2.00391 23.3739 2.00168C23.3588 2.00061 23.348 2.00018 23.3431 2.00002C23.3406 1.99994 23.3398 1.99994 23.3407 1.99995C23.3411 1.99996 23.342 1.99997 23.3434 1.99998C23.3441 1.99999 23.3449 1.99999 23.3458 1.99999C23.3463 2 23.3468 2 23.3473 2C23.3476 2 23.3479 2 23.3482 2C23.3483 2 23.3485 2 23.3486 2C23.3488 2 23.349 2 23.3491 1C23.3491 1.55342e-09 23.3494 3.90651e-08 23.3496 1.28566e-07C23.3497 1.71059e-07 23.3499 3.29749e-07 23.3501 4.69036e-07C23.3504 7.7022e-07 23.3507 1.22287e-06 23.351 1.84533e-06C23.3517 3.09022e-06 23.3524 5.01445e-06 23.3532 7.76511e-06C23.3547 1.3266e-05 23.3563 2.20745e-05 23.3581 3.53738e-05C23.3618 6.19658e-05 23.366 0.000106552 23.3708 0.000178712C23.3803 0.000322907 23.3923 0.000577951 23.4063 0.00102259C23.4343 0.001909 23.4713 0.00356515 23.5151 0.00666768C23.6013 0.0127708 23.7215 0.0249679 23.8572 0.0502001C24.0788 0.0914139 24.5489 0.201767 24.9067 0.55942L23.4928 1.97398Z" fill="#CFCFCF"/>
<line x1="6.06689" y1="6.38336" x2="19.4002" y2="6.38336" stroke="#CFCFCF" stroke-width="1.5"/>
<line x1="6.06689" y1="9.58337" x2="18.0669" y2="9.58337" stroke="#CFCFCF" stroke-width="1.5"/>
<line x1="6.06689" y1="13.05" x2="13.8002" y2="13.05" stroke="#CFCFCF" stroke-width="1.5"/>
</svg>
